<?xml version="1.0" standalone="no"?>
<!DOCTYPE svg PUBLIC "-//W3C//DTD SVG 20010904//EN"
 "http://www.w3.org/TR/2001/REC-SVG-20010904/DTD/svg10.dtd">
<svg version="1.0" xmlns="http://www.w3.org/2000/svg"
 width="600.000000pt" height="600.000000pt" viewBox="0 0 600.000000 600.000000"
 preserveAspectRatio="xMidYMid meet">

<g transform="translate(0.000000,600.000000) scale(0.100000,-0.100000)"
fill="#fff" stroke="none">
<path d="M0 3000 l0 -3000 3000 0 3000 0 0 3000 0 3000 -3000 0 -3000 0 0
-3000z m3588 1845 l-6 -45 39 0 39 0 0 45 0 44 42 -15 c45 -16 98 -59 98 -81
0 -7 10 -17 21 -24 19 -9 25 -7 44 17 l22 27 26 -35 c15 -19 27 -40 27 -45 0
-6 21 -25 48 -42 81 -52 102 -77 101 -119 l-1 -37 -13 31 c-14 32 -72 77 -87
68 -4 -3 -8 -26 -8 -50 0 -37 6 -51 29 -75 16 -16 37 -29 45 -29 15 0 15 -3 1
-37 -16 -40 -67 -93 -88 -93 -6 0 -4 5 5 11 22 13 38 71 31 114 -3 19 -7 35
-10 35 -2 0 -21 -11 -44 -25 -47 -30 -63 -65 -55 -121 l5 -42 -61 -23 c-52
-19 -76 -38 -150 -113 -48 -49 -89 -88 -91 -85 -2 2 -20 27 -40 55 -54 76
-107 119 -175 144 l-59 22 5 47 c5 57 -8 85 -51 111 -49 31 -57 26 -57 -31 0
-44 4 -55 31 -80 31 -29 17 -30 -27 -2 -28 18 -72 105 -55 111 6 2 25 15 41
29 26 22 30 31 30 79 0 46 -2 53 -17 47 -28 -9 -73 -55 -73 -73 0 -9 -4 -20
-9 -25 -14 -15 5 -115 27 -145 10 -14 40 -40 66 -57 41 -28 45 -33 25 -33 -36
-1 -100 -33 -144 -75 -22 -20 -29 -30 -15 -21 91 57 118 68 175 73 41 3 71 0
96 -10 77 -33 180 -187 164 -244 -13 -47 -6 -66 51 -123 l54 -56 -20 -22 c-25
-26 -28 -27 -51 -6 -10 9 -23 13 -28 9 -14 -8 -14 -51 -1 -75 13 -24 3 -26
-131 -34 -151 -9 -207 -31 -251 -96 l-16 -25 -24 25 c-130 138 -198 306 -198
493 l0 97 28 -7 c51 -15 92 -8 120 20 32 32 23 46 -37 54 -35 5 -46 2 -66 -17
-14 -13 -28 -21 -31 -17 -7 6 30 125 52 169 l14 26 37 -19 c20 -10 48 -19 61
-19 23 0 24 3 17 38 -3 20 -17 48 -30 62 -31 33 -20 54 25 48 31 -5 32 -4 28
30 -4 31 0 38 45 73 26 21 60 46 75 55 15 9 39 36 54 60 30 48 43 54 53 24 12
-37 68 -23 91 22 13 26 98 78 128 78 5 0 6 -20 4 -45z m567 -304 c3 -5 -6 -26
-20 -47 -31 -46 -34 -94 -5 -94 11 0 37 7 57 15 42 18 42 18 74 -65 23 -62 34
-110 25 -110 -3 0 -15 9 -26 20 -33 33 -130 22 -130 -15 0 -7 14 -23 31 -36
30 -21 74 -23 122 -4 15 7 17 -2 17 -96 0 -61 -7 -129 -16 -168 -21 -87 -92
-223 -150 -289 l-47 -53 -18 30 c-10 16 -29 37 -42 46 -38 24 -155 45 -265 46
-123 1 -137 11 -87 59 35 34 43 62 26 89 -5 8 -5 25 1 42 6 19 6 34 -2 49
l-12 22 -22 -21 -22 -21 -24 26 -25 25 48 46 c27 25 64 71 84 102 100 161 223
187 375 80 35 -25 46 -24 22 2 -26 29 -99 70 -137 78 l-31 7 37 23 c58 36 87
81 99 155 10 59 13 66 34 66 13 0 25 -4 29 -9z m-800 -883 c-32 -38 -45 -68
-53 -126 l-7 -43 -50 32 -49 31 31 13 c34 15 58 45 68 87 7 27 20 35 63 37
l24 1 -27 -32z m145 10 c-27 -29 -49 -70 -64 -122 l-12 -41 -17 32 c-40 76 4
150 91 152 l23 1 -21 -22z m130 7 c8 -10 11 -31 7 -59 -4 -28 -1 -63 8 -93 23
-75 20 -100 -12 -106 -57 -11 -64 8 -37 101 14 46 15 65 5 105 -6 27 -11 53
-11 58 0 14 26 11 40 -6z m193 -25 c31 -35 34 -58 11 -106 -21 -44 -30 -43
-38 5 -3 21 -22 62 -42 91 l-36 53 38 -6 c26 -4 48 -17 67 -37z m103 32 c6 -4
17 -24 23 -44 7 -21 25 -47 41 -58 42 -30 48 -24 13 13 -27 28 -52 77 -40 77
25 0 73 -29 87 -53 l19 -30 -37 -30 c-20 -16 -49 -35 -64 -43 -27 -14 -28 -13
-28 8 0 44 -21 99 -52 133 l-30 35 28 0 c16 0 34 -4 40 -8z m-676 -72 c-27
-38 -58 -56 -73 -41 -17 17 8 58 50 80 47 24 56 8 23 -39z m485 -45 c4 -22 2
-53 -4 -68 -13 -34 -13 -37 -3 -37 5 0 15 19 21 42 13 42 13 42 26 18 7 -14
15 -37 19 -52 6 -28 3 -31 -57 -40 -31 -5 -70 81 -70 151 0 32 3 64 8 71 13
20 53 -36 60 -85z m-161 43 c7 -49 -14 -134 -42 -167 -14 -17 -24 -20 -54 -15
-43 7 -45 13 -19 69 13 28 20 35 25 25 3 -8 10 -28 16 -44 15 -41 22 -28 9 18
-12 42 -5 87 19 129 23 39 39 34 46 -15z m-214 -36 c0 -9 16 -41 36 -70 20
-29 35 -55 32 -58 -3 -2 -27 4 -54 13 -56 21 -62 35 -44 99 12 42 30 51 30 16z
m562 -60 c1 -29 3 -26 -59 -51 -30 -12 -53 -16 -53 -10 0 5 16 31 35 56 19 25
35 53 35 63 0 9 3 20 7 24 10 9 35 -51 35 -82z m-228 -77 c3 -8 1 -15 -4 -15
-6 0 -10 7 -10 15 0 8 2 15 4 15 2 0 6 -7 10 -15z m-134 -5 c0 -5 -5 -10 -11
-10 -5 0 -7 5 -4 10 3 6 8 10 11 10 2 0 4 -4 4 -10z m-2219 -203 c18 -89 14
-111 -23 -124 -13 -4 -131 -8 -264 -8 l-240 0 -40 -26 c-41 -28 -81 -96 -71
-122 4 -12 43 -17 184 -23 282 -14 384 -12 415 8 l25 17 17 -82 c21 -105 21
-104 -9 -123 -45 -29 -91 -32 -327 -18 -312 18 -298 18 -298 -6 0 -30 83 -108
143 -135 95 -44 173 -59 303 -60 104 0 125 3 142 18 19 18 20 17 37 -60 9 -43
19 -88 22 -101 4 -19 -2 -25 -43 -43 -42 -19 -59 -21 -139 -15 -209 14 -375
107 -445 249 -47 96 -62 187 -63 392 -2 167 0 183 20 220 27 51 58 80 107 100
35 15 68 16 260 10 189 -6 224 -5 241 8 11 9 22 13 25 10 3 -2 12 -41 21 -86z
m895 1 c13 -31 19 -78 22 -165 2 -68 5 -123 7 -123 1 0 19 7 38 15 78 33 191
13 250 -43 63 -59 71 -89 77 -297 5 -179 7 -194 31 -243 l26 -52 -87 0 c-84 0
-87 1 -99 26 -14 32 -32 155 -31 209 1 22 1 77 1 123 -1 78 -3 85 -30 113 -24
23 -38 29 -73 29 -91 0 -118 -48 -118 -208 0 -128 14 -214 42 -260 l20 -33
-88 3 -89 3 -14 40 c-11 31 -16 126 -21 410 -7 381 -11 418 -51 469 l-20 26
94 0 95 0 18 -42z m-411 -117 l-7 -124 45 6 c25 4 82 9 126 13 l81 7 -7 -65
c-4 -50 -2 -71 12 -97 21 -41 11 -51 -51 -51 -51 0 -89 37 -115 112 -17 51
-19 53 -51 50 -18 -2 -34 -5 -36 -7 -8 -8 -23 -350 -19 -430 4 -81 19 -137 54
-195 2 -3 -39 -5 -90 -5 l-92 0 -17 50 c-24 74 -28 191 -12 365 19 217 21 201
-25 199 -38 -3 -39 -4 -55 -60 -27 -98 -90 -152 -148 -128 -33 13 -32 12 -12
50 9 19 14 50 13 80 -2 27 1 53 7 58 5 5 59 14 119 20 61 7 114 16 118 20 10
10 5 199 -6 222 -7 14 5 20 70 36 108 27 107 28 98 -126z m999 121 c17 -10 41
-34 54 -53 34 -49 28 -136 -12 -178 l-28 -29 18 -48 c13 -38 18 -98 23 -269 7
-227 8 -235 58 -326 2 -4 -38 -6 -89 -5 l-93 1 -19 55 c-15 44 -19 95 -23 255
-6 246 -16 291 -73 329 -88 58 -102 173 -28 243 18 17 47 35 63 42 39 14 110
6 149 -17z m1689 -8 c81 -53 90 -173 18 -238 -18 -16 -19 -21 -7 -45 24 -47
28 -84 35 -306 7 -219 10 -234 49 -307 6 -12 -167 -7 -176 6 -27 34 -35 95
-42 306 -5 182 -10 233 -24 268 -10 23 -22 42 -27 42 -24 0 -77 63 -89 105
-41 147 130 256 263 169z m-352 -184 c44 -12 88 -58 98 -101 9 -42 -5 -324
-19 -396 -9 -39 -20 -59 -46 -82 -39 -35 -49 -38 -160 -45 -45 -3 -105 -14
-135 -25 l-54 -21 3 -270 3 -270 -71 0 c-66 0 -74 2 -102 30 l-30 31 4 447 c6
500 6 503 76 575 57 60 107 83 222 106 97 19 140 26 165 30 6 0 26 -4 46 -9z
m922 -74 c70 -31 132 -92 165 -165 25 -52 27 -69 33 -236 3 -99 11 -193 17
-208 7 -16 12 -30 12 -33 0 -3 -41 -3 -92 -2 l-92 3 -9 37 -9 37 -36 -23 c-57
-37 -108 -49 -177 -43 -113 9 -201 74 -254 187 -35 75 -37 210 -4 282 42 93
136 169 233 189 58 13 153 2 213 -25z m-1591 -16 c30 0 97 -68 104 -106 3 -18
1 -115 -5 -215 -17 -272 -33 -298 -200 -309 -59 -5 -128 -17 -179 -34 -46 -14
-100 -26 -120 -26 -53 0 -99 31 -111 76 -12 44 3 351 21 403 13 40 76 112 125
142 37 23 295 81 328 74 11 -3 28 -5 37 -5z m-2102 -869 l0 -80 48 -3 c31 -2
46 -7 45 -15 -2 -7 1 -13 5 -13 4 0 23 43 41 95 50 141 54 138 139 -92 6 -18
-35 -17 -45 1 -4 7 -23 15 -42 18 -27 4 -35 1 -39 -14 -4 -16 -15 -18 -98 -18
l-94 0 0 100 c0 93 1 100 20 100 18 0 20 -7 20 -79z m377 22 l38 -57 3 57 c3
49 6 57 22 57 19 0 20 -8 20 -100 0 -92 -2 -100 -19 -100 -12 0 -31 19 -51 50
-18 28 -35 50 -39 50 -4 0 -7 -21 -7 -47 1 -42 -2 -48 -21 -51 -23 -3 -23 -1
-23 97 0 94 1 101 20 101 13 0 33 -19 57 -57z m253 37 c16 -16 20 -33 20 -79
0 -52 -3 -62 -26 -80 -19 -15 -41 -21 -75 -21 l-49 0 0 100 0 100 55 0 c42 0
60 -5 75 -20z m241 1 c20 -16 23 -28 24 -81 0 -53 -3 -64 -24 -81 -30 -25 -76
-24 -101 1 -16 16 -20 33 -20 84 0 56 3 67 22 80 30 21 71 20 99 -3z m197 2
c-2 -13 -14 -17 -43 -18 -33 0 -41 -4 -43 -22 -3 -19 2 -22 35 -25 27 -2 39
-8 41 -20 3 -15 -4 -18 -41 -18 l-44 0 4 -40 c4 -37 2 -40 -21 -40 l-26 0 0
100 0 100 71 0 c61 0 70 -2 67 -17z m221 -9 c31 -39 29 -117 -4 -149 -30 -31
-77 -33 -105 -5 -16 16 -20 33 -20 80 0 47 4 64 20 80 30 30 83 27 109 -6z
m183 9 c22 -20 23 -60 2 -84 -14 -16 -14 -21 6 -58 l20 -41 -26 0 c-21 0 -29
8 -41 40 -21 53 -43 53 -43 -1 0 -36 -2 -40 -22 -37 -19 3 -23 10 -26 58 -2
30 0 74 3 98 l6 42 51 0 c34 0 58 -6 70 -17z m98 -83 c0 -93 -1 -100 -20 -100
-19 0 -20 7 -20 100 0 93 1 100 20 100 19 0 20 -7 20 -100z m170 78 c26 -29
25 -38 -5 -38 -14 0 -25 5 -25 11 0 6 -12 9 -27 7 -27 -3 -28 -5 -28 -58 0
-50 2 -55 24 -58 13 -2 28 2 32 10 14 21 11 28 -11 28 -11 0 -20 7 -20 15 0
11 11 15 40 15 38 0 40 -2 40 -30 0 -66 -81 -103 -128 -60 -31 29 -32 130 -2
160 27 27 83 27 110 -2z m99 -78 c-3 -97 -3 -100 -26 -100 -23 0 -23 2 -23
100 l0 100 26 0 25 0 -2 -100z m112 48 l34 -53 3 53 c3 48 5 52 28 52 l25 0
-5 -97 c-2 -54 -5 -99 -5 -100 -1 -2 -9 -3 -19 -3 -10 0 -31 22 -52 58 l-35
57 -3 -57 c-3 -50 -6 -58 -22 -58 -19 0 -20 8 -20 100 0 92 2 100 19 100 12 0
31 -19 52 -52z m238 43 c22 -14 2 -34 -28 -28 -15 3 -33 2 -40 -3 -20 -12 -5
-40 21 -40 37 0 68 -27 68 -60 0 -36 -32 -60 -80 -60 -44 0 -81 22 -59 36 8 5
32 9 54 9 51 0 55 25 5 38 -19 5 -41 13 -47 19 -18 15 -16 63 3 82 17 17 80
21 103 7z m-2845 -849 l43 -86 43 87 c38 80 44 87 71 87 l29 0 0 -160 0 -160
-30 0 -30 0 0 98 -1 97 -31 -62 c-24 -48 -36 -63 -52 -63 -17 0 -29 15 -53 63
l-32 62 0 -97 -1 -98 -30 0 -30 0 0 159 c0 119 3 160 13 164 30 10 50 -10 91
-91z m796 -73 l0 -159 -30 0 -30 0 0 159 c0 158 0 160 23 163 12 2 25 2 30 0
4 -2 7 -75 7 -163z m235 157 c38 -16 43 -27 21 -45 -10 -8 -21 -9 -42 -1 -64
25 -122 -23 -74 -62 12 -10 33 -18 47 -18 90 0 132 -99 68 -160 -33 -31 -118
-39 -163 -16 -36 18 -39 28 -17 46 12 10 21 10 41 1 58 -26 119 -5 112 40 -2
19 -11 26 -43 32 -22 5 -56 16 -75 25 -32 16 -35 21 -38 65 -4 54 7 73 53 93
39 17 68 17 110 0z m524 8 c79 -16 110 -108 54 -160 l-28 -26 36 -69 36 -69
-34 0 c-31 0 -35 4 -65 65 -29 57 -36 65 -61 65 l-28 0 2 -62 c3 -62 2 -63
-24 -66 l-27 -3 0 160 0 160 48 4 c26 2 50 4 53 5 4 1 20 -1 38 -4z m218 -67
l31 -62 29 62 c26 58 30 62 61 63 l32 0 -51 -100 c-45 -91 -50 -105 -47 -158
3 -56 2 -57 -24 -60 l-28 -3 0 66 c0 58 -5 76 -46 157 -32 65 -42 93 -34 98
25 15 47 -3 77 -63z m469 57 c49 -23 64 -59 64 -148 0 -92 -10 -120 -52 -146
-52 -32 -103 -27 -144 14 -36 36 -37 41 -34 155 2 73 19 107 65 127 40 18 60
17 101 -2z m724 -20 c0 -22 -4 -24 -45 -24 l-45 0 0 -135 0 -135 -30 0 -30 0
0 135 0 135 -40 0 c-35 0 -40 3 -40 23 0 13 2 26 4 28 2 2 54 3 115 1 110 -3
111 -3 111 -28z m211 14 c49 -27 62 -66 57 -165 -3 -72 -5 -76 -41 -109 -42
-39 -90 -45 -136 -18 -43 25 -54 53 -58 139 -4 92 5 118 56 152 42 29 73 29
122 1z m359 -114 c0 -121 -1 -124 -27 -154 -51 -57 -147 -49 -189 15 -12 19
-16 51 -16 142 l0 118 29 3 28 3 0 -121 c0 -110 2 -123 20 -136 22 -17 74 -12
87 9 4 6 8 64 8 128 0 64 2 118 5 121 3 3 17 3 30 0 25 -4 25 -4 25 -128z
m248 120 c26 -5 62 -58 62 -92 0 -13 -13 -37 -30 -53 l-30 -30 35 -70 35 -69
-33 0 c-32 0 -36 4 -66 65 -26 54 -35 65 -56 65 -24 0 -25 -2 -25 -65 l0 -65
-30 0 -30 0 0 158 c0 87 2 161 4 163 5 5 133 0 164 -7z m414 6 c45 -13 50 -20
34 -42 -11 -14 -18 -15 -47 -7 -51 16 -91 -2 -87 -39 2 -23 9 -28 43 -35 75
-16 104 -34 113 -69 12 -47 1 -80 -38 -105 -38 -27 -94 -30 -145 -9 -37 16
-43 27 -22 44 8 7 24 7 53 0 51 -14 91 -4 100 24 8 27 -26 58 -63 58 -13 0
-37 7 -53 15 -91 47 -49 168 60 174 8 1 32 -4 52 -9z m-3872 -160 l0 -160 -30
0 -30 0 0 160 0 160 30 0 30 0 0 -160z m201 63 l64 -97 3 97 3 97 29 0 30 0 0
-160 0 -160 -29 0 c-16 0 -31 6 -34 14 -3 8 -32 54 -64 103 l-58 88 -3 -102
-3 -103 -29 0 -30 0 0 160 0 160 29 0 c25 0 36 -12 92 -97z m829 72 c0 -23 -4
-25 -45 -25 l-45 0 0 -135 0 -135 -25 0 -25 0 -1 108 c-1 59 -2 119 -2 135 0
25 -3 27 -44 27 -39 0 -43 2 -43 25 l0 25 115 0 115 0 0 -25z m1232 19 c3 -3
4 -14 1 -25 -5 -17 -14 -19 -79 -19 l-74 0 0 -40 0 -40 65 0 c62 0 65 -1 65
-25 0 -23 -4 -24 -62 -27 l-63 -3 -3 -68 c-3 -68 -3 -68 -30 -65 l-27 3 -3
158 -3 157 104 0 c57 0 106 -3 109 -6z m1388 -154 l0 -160 -30 0 -30 0 0 160
0 160 30 0 30 0 0 -160z m454 73 l44 -88 42 88 c38 80 43 87 70 87 l30 0 0
-160 0 -160 -30 0 -30 0 -1 98 0 97 -32 -62 c-23 -47 -37 -63 -52 -63 -15 0
-29 16 -52 63 l-32 62 0 -97 -1 -98 -30 0 -30 0 0 160 0 160 30 0 c27 0 33 -7
74 -87z"/>
<path d="M3045 4373 c-24 -6 -45 -22 -45 -34 0 -15 74 -59 101 -59 37 0 89 20
89 34 0 39 -88 75 -145 59z"/>
<path d="M3166 4189 c-20 -24 -36 -46 -36 -50 0 -12 73 -20 105 -11 30 8 79
66 72 86 -2 6 -26 12 -54 14 -49 3 -52 1 -87 -39z"/>
<path d="M3041 4151 c-25 -34 -26 -50 -7 -96 19 -43 31 -44 57 -2 21 34 21 86
-2 113 -17 20 -25 18 -48 -15z"/>
<path d="M4064 4348 l-36 -32 22 -18 c33 -27 97 -23 143 7 20 14 37 30 37 35
0 14 -67 40 -101 40 -18 0 -42 -12 -65 -32z"/>
<path d="M3915 4220 c-10 -17 33 -77 65 -90 27 -11 95 -9 107 4 8 8 -26 64
-49 80 -25 18 -113 22 -123 6z"/>
<path d="M4134 4166 c-24 -37 -21 -88 6 -126 20 -28 24 -30 38 -17 8 9 17 38
19 64 4 42 1 54 -19 78 l-25 29 -19 -28z"/>
<path d="M2689 3167 c-49 -38 -49 -116 1 -142 41 -21 67 -19 95 10 17 16 25
35 25 60 0 65 -73 109 -121 72z"/>
<path d="M4355 3155 c-74 -73 23 -188 105 -125 35 27 36 103 1 131 -32 26 -77
24 -106 -6z"/>
<path d="M3940 2986 c-49 -27 -71 -86 -81 -214 -23 -333 -22 -342 49 -342 63
0 107 24 125 69 14 34 38 274 40 405 1 50 -2 61 -22 77 -27 22 -75 24 -111 5z"/>
<path d="M4901 2820 c-43 -10 -80 -37 -109 -81 -20 -28 -23 -44 -20 -92 7 -94
71 -157 160 -157 57 0 96 17 131 60 66 78 49 197 -37 249 -40 24 -82 31 -125
21z"/>
<path d="M3293 2898 c-39 -10 -79 -57 -92 -106 -5 -20 -12 -91 -16 -157 -3
-66 -8 -151 -11 -188 -4 -54 -2 -74 11 -94 15 -23 22 -25 65 -21 60 6 97 29
115 72 19 45 48 426 35 460 -5 14 -11 26 -12 26 -2 0 -17 4 -33 8 -17 5 -44 5
-62 0z"/>
<path d="M1571 2067 c-14 -37 -14 -37 9 -37 21 0 24 12 10 45 -7 19 -9 18 -19
-8z"/>
<path d="M1938 2060 c3 -55 6 -60 27 -60 25 0 35 17 35 60 0 45 -10 60 -39 60
-26 0 -26 -1 -23 -60z"/>
<path d="M2190 2115 c-6 -7 -10 -35 -8 -62 2 -37 7 -49 22 -51 25 -5 35 7 40
48 6 55 -28 96 -54 65z"/>
<path d="M2605 2116 c-12 -9 -15 -24 -13 -61 3 -43 6 -50 25 -53 28 -4 47 38
38 84 -6 37 -26 48 -50 30z"/>
<path d="M2780 2100 c0 -17 5 -21 28 -18 16 2 27 9 27 18 0 9 -11 16 -27 18
-23 3 -28 -1 -28 -18z"/>
<path d="M2203 1298 c2 -39 4 -43 31 -46 44 -5 73 6 79 30 11 40 -9 58 -63 58
l-49 0 2 -42z"/>
<path d="M2902 1339 c-39 -15 -54 -91 -31 -171 12 -46 46 -59 84 -34 23 15 25
22 25 94 0 99 -23 131 -78 111z"/>
<path d="M3829 1342 c-29 -6 -42 -46 -37 -122 4 -75 19 -100 60 -100 38 0 58
36 58 105 0 96 -23 130 -81 117z"/>
<path d="M4410 1295 c0 -45 0 -45 36 -45 47 0 74 16 74 43 0 34 -19 47 -67 47
l-43 0 0 -45z"/>
</g>
</svg>
