<?xml version="1.0" encoding="UTF-8" standalone="no"?>
<svg
   xmlns:dc="http://purl.org/dc/elements/1.1/"
   xmlns:cc="http://creativecommons.org/ns#"
   xmlns:rdf="http://www.w3.org/1999/02/22-rdf-syntax-ns#"
   xmlns:svg="http://www.w3.org/2000/svg"
   xmlns="http://www.w3.org/2000/svg"
   viewBox="0 0 1122.52 1587.4"
   height="1587.4"
   width="1122.52"
   xml:space="preserve"
   id="svg2"
   version="1.1"><metadata
     id="metadata8"><rdf:RDF><cc:Work
         rdf:about=""><dc:format>image/svg+xml</dc:format><dc:type
           rdf:resource="http://purl.org/dc/dcmitype/StillImage" /></cc:Work></rdf:RDF></metadata><defs
     id="defs6"><clipPath
       id="clipPath18"
       clipPathUnits="userSpaceOnUse"><path
         id="path16"
         d="M 0,1190.551 H 841.89 V 0 H 0 Z" /></clipPath></defs><g
     transform="matrix(1.3333333,0,0,-1.3333333,0,1587.4)"
     id="g10"><g
       id="g12"><g
         clip-path="url(#clipPath18)"
         id="g14"><g
           transform="translate(249.2054,956.6783)"
           id="g20"><path
             id="path22"
             style="fill:#bc9776;fill-opacity:1;fill-rule:nonzero;stroke:none"
             d="m 0,0 -0.223,-0.888 c -4.102,0.336 -11.411,0.445 -14.739,0.445 -3.875,0 -11.189,-0.109 -15.289,-0.445 L -30.472,0 c 2.549,0.888 3.432,2.437 3.546,4.983 0.109,3.549 0.22,13.745 0.22,30.92 0,7.868 0.109,13.958 0.223,18.946 C -33.132,39.226 -42.329,17.063 -48.646,0.663 h -5.428 c -7.424,17.84 -17.952,39.56 -25.709,55.074 0.223,-5.099 0.334,-11.412 0.557,-19.834 0.218,-12.852 1.326,-25.714 1.992,-29.588 0.665,-4.096 1.553,-5.318 3.768,-6.315 l -0.223,-0.888 c -2.657,0.336 -6.868,0.445 -8.754,0.445 -1.883,0 -6.317,-0.109 -8.974,-0.445 L -91.64,0 c 2.437,1.106 3.326,1.992 3.546,4.32 0.554,6.206 0.665,18.84 0.665,31.583 0,8.749 -0.22,24.045 -0.551,30.912 -0.114,2.553 -0.889,4.102 -3.437,4.988 l 0.222,0.888 c 4.212,-0.334 9.863,-0.443 14.292,-0.443 4.212,0 10.529,0.109 14.517,0.327 6.538,-14.955 12.078,-27.035 18.061,-39.11 5.322,11.966 11.968,28.25 16.068,39.11 3.88,-0.218 9.42,-0.327 13.074,-0.327 3.549,0 10.858,0.109 14.96,0.443 L 0,71.803 C -2.549,70.917 -3.437,69.368 -3.546,66.815 -3.659,63.271 -3.768,53.184 -3.768,35.903 -3.768,18.728 -3.659,8.532 -3.546,4.983 -3.437,2.437 -2.549,0.888 0,0" /></g><g
           transform="translate(286.08,955.7908)"
           id="g24"><path
             id="path26"
             style="fill:#bc9776;fill-opacity:1;fill-rule:nonzero;stroke:none"
             d="m 0,0 c -4.098,0.334 -11.412,0.443 -14.957,0.443 -3.66,0 -10.974,-0.109 -15.072,-0.443 l -0.222,0.888 c 2.551,0.886 3.436,2.435 3.545,4.981 0.114,3.551 0.223,13.747 0.223,30.92 0,17.283 -0.109,27.371 -0.223,30.914 -0.109,2.551 -0.994,4.1 -3.545,4.988 l 0.222,0.888 c 4.098,-0.333 11.412,-0.445 15.072,-0.445 3.545,0 10.859,0.112 14.957,0.445 L 0.223,72.691 C -2.328,71.803 -3.214,70.254 -3.323,67.703 -3.432,64.16 -3.546,54.072 -3.546,36.789 -3.546,19.616 -3.432,9.42 -3.323,5.869 -3.214,3.323 -2.328,1.774 0.223,0.888 Z" /></g><g
           transform="translate(367.4058,1028.4827)"
           id="g28"><path
             id="path30"
             style="fill:#bc9776;fill-opacity:1;fill-rule:nonzero;stroke:none"
             d="m 0,0 c -2.437,-1.113 -3.323,-1.992 -3.768,-6.319 -0.33,-4.207 -0.443,-12.63 -0.443,-29.584 v -36.788 h -10.195 c -21.497,24.154 -36.897,41.663 -48.089,53.626 0.109,-4.538 0.332,-9.971 0.443,-16.838 0.22,-12.852 1.329,-25.711 1.995,-29.588 0.665,-4.095 1.553,-5.317 3.768,-6.312 l -0.223,-0.888 c -2.657,0.334 -7.643,0.442 -9.528,0.442 -1.883,0 -5.543,-0.108 -8.2,-0.442 l -0.223,0.888 c 2.437,1.103 3.325,1.992 3.546,4.32 0.554,6.203 0.665,14.626 0.665,31.58 0,5.1 -0.111,14.846 -0.222,19.946 -0.112,9.199 -3.546,12.743 -7.978,15.957 l 0.221,0.888 c 3.768,-0.336 9.088,-0.445 14.076,-0.445 4.206,0 8.64,0.109 12.52,0.218 16.289,-18.837 25.595,-29.027 39.335,-43.101 0,1.992 -0.109,4.211 -0.109,6.537 -0.223,12.852 -0.888,24.266 -1.554,29.145 -0.663,4.539 -1.992,5.761 -4.211,6.758 l 0.223,0.888 c 2.437,-0.336 6.539,-0.445 8.865,-0.445 2.546,0 6.537,0.109 8.863,0.445 z" /></g><g
           transform="translate(403.8435,955.7908)"
           id="g32"><path
             id="path34"
             style="fill:#bc9776;fill-opacity:1;fill-rule:nonzero;stroke:none"
             d="M 0,0 C -4.098,0.334 -11.412,0.443 -14.958,0.443 -18.617,0.443 -25.931,0.334 -30.029,0 l -0.222,0.888 c 2.551,0.886 3.436,2.435 3.545,4.981 0.114,3.551 0.223,13.747 0.223,30.92 0,17.283 -0.109,27.371 -0.223,30.914 -0.109,2.551 -0.994,4.1 -3.545,4.988 l 0.222,0.888 c 4.098,-0.333 11.412,-0.445 15.071,-0.445 3.546,0 10.86,0.112 14.958,0.445 L 0.223,72.691 C -2.328,71.803 -3.214,70.254 -3.323,67.703 -3.437,64.16 -3.546,54.072 -3.546,36.789 -3.546,19.616 -3.437,9.42 -3.323,5.869 -3.214,3.323 -2.328,1.774 0.223,0.888 Z" /></g><g
           transform="translate(437.1862,954.3507)"
           id="g36"><path
             id="path38"
             style="fill:#bc9776;fill-opacity:1;fill-rule:nonzero;stroke:none"
             d="m 0,0 c -8.532,0 -17.617,1.549 -25.043,5.542 l -2.328,23.044 1.22,0.334 C -17.951,14.401 -6.76,8.089 1.883,8.089 c 3.659,0 8.977,1.665 8.977,7.425 0,6.206 -6.206,9.529 -14.183,13.406 -10.194,4.988 -21.943,10.86 -21.943,25.711 0,13.072 10.86,21.829 26.374,21.829 8.312,0 16.955,-2.111 21.277,-5.209 L 23.712,50.42 22.606,49.977 C 15.846,62.938 8.309,68.255 0.552,68.255 c -5.538,0 -8.198,-3.098 -8.198,-7.418 0,-5.434 5.983,-8.65 14.186,-12.634 C 17.62,42.769 28.92,37.009 28.92,23.16 28.92,8.64 17.177,0 0,0" /></g><g
           transform="translate(532.4665,1009.3096)"
           id="g40"><path
             id="path42"
             style="fill:#bc9776;fill-opacity:1;fill-rule:nonzero;stroke:none"
             d="m 0,0 c -7.975,7.646 -17.729,12.634 -21.163,12.634 h -0.329 v -29.363 c 0,-17.172 0.109,-27.371 0.217,-30.919 0.112,-2.547 1,-4.096 3.546,-4.984 l -0.218,-0.886 c -4.102,0.334 -11.416,0.443 -14.962,0.443 -3.655,0 -10.969,-0.109 -15.066,-0.443 l -0.223,0.886 c 2.546,0.888 3.432,2.437 3.546,4.984 0.109,3.548 0.218,13.747 0.218,30.919 v 29.363 h -0.332 C -48.198,12.634 -57.952,7.646 -65.927,0 l -0.999,0.668 c 2.439,7.421 3.988,13.74 4.877,18.948 H -3.877 C -2.989,14.408 -1.44,8.089 1,0.668 Z" /></g><g
           transform="translate(564.0309,996.348)"
           id="g44"><path
             id="path46"
             style="fill:#bc9776;fill-opacity:1;fill-rule:nonzero;stroke:none"
             d="m 0,0 h 0.443 c 8.202,0 11.525,4.429 11.525,13.406 0,7.868 -2.439,12.525 -11.745,12.525 C 0.114,21.165 0,14.737 0,0 m 46.097,-36.012 c -3.325,-3.323 -8.423,-5.985 -14.185,-5.985 -13.518,0 -21.606,7.534 -25.709,23.494 -1.549,5.978 -2.88,9.083 -4.54,10.305 C 1.108,-8.089 0.775,-8.089 0,-7.98 c 0,-12.96 0.114,-23.157 0.223,-26.708 0.109,-2.546 0.994,-4.095 3.545,-4.981 l -0.222,-0.888 c -4.098,0.334 -11.412,0.443 -15.292,0.443 -3.325,0 -10.639,-0.109 -14.737,-0.443 l -0.223,0.888 c 2.551,0.886 3.437,2.435 3.546,4.981 0.114,3.551 0.223,13.748 0.223,30.92 0,17.283 -0.109,27.371 -0.223,30.914 -0.109,3.439 -1.883,4.436 -3.546,4.545 v 0.886 c 9.198,0.446 17.286,0.772 24.378,0.772 19.948,0 38.008,-4.763 38.008,-19.943 0,-11.632 -9.972,-18.615 -21.054,-20.831 5.763,-1.549 10.748,-4.43 17.065,-13.958 7.092,-10.643 9.749,-14.52 14.075,-13.523 z" /></g><g
           transform="translate(680.9211,1028.4827)"
           id="g48"><path
             id="path50"
             style="fill:#bc9776;fill-opacity:1;fill-rule:nonzero;stroke:none"
             d="m 0,0 c -2.437,-0.779 -4.986,-3.105 -7.205,-6.54 -3.989,-5.76 -12.409,-18.285 -21.384,-32.134 0,-16.954 0.109,-25.043 0.223,-28.148 0.109,-2.546 0.995,-4.095 3.546,-4.981 l -0.223,-0.888 c -1.554,0.334 -11.412,0.442 -14.957,0.442 -3.66,0 -10.974,-0.108 -15.072,-0.442 l -0.222,0.888 c 2.551,0.886 3.434,2.435 3.545,4.981 0.112,2.887 0.223,10.308 0.223,25.486 -5.651,10.09 -13.96,23.827 -20.609,34.244 -2.105,3.324 -5.765,6.313 -7.98,7.092 l 0.223,0.888 c 4.32,-0.336 10.194,-0.445 17.063,-0.445 8.532,0 14.626,0.109 19.723,0.445 L -42.994,0 c -2.549,-1.44 -3.878,-3.994 -1.109,-8.757 4.103,-6.866 8.309,-13.849 12.52,-20.606 5.1,8.306 10.86,18.06 12.857,21.829 2.215,4.32 0.997,6.312 -1.222,7.534 l 0.223,0.888 c 3.105,-0.336 6.868,-0.445 10.196,-0.445 3.544,0 5.983,0.109 9.306,0.445 z" /></g><g
           transform="translate(283.2839,915.6471)"
           id="g52"><path
             id="path54"
             style="fill:#bc9776;fill-opacity:1;fill-rule:nonzero;stroke:none"
             d="m 0,0 c -7.975,7.643 -17.729,12.634 -21.163,12.634 h -0.329 v -29.363 c 0,-17.172 0.109,-27.371 0.217,-30.919 0.112,-2.547 1,-4.096 3.546,-4.984 l -0.218,-0.886 c -4.102,0.334 -11.416,0.443 -14.962,0.443 -3.655,0 -10.969,-0.109 -15.066,-0.443 l -0.223,0.886 c 2.546,0.888 3.432,2.437 3.546,4.984 0.109,3.548 0.218,13.747 0.218,30.919 v 29.363 h -0.332 C -48.198,12.634 -57.952,7.643 -65.927,0 l -0.999,0.668 c 2.439,7.421 3.988,13.74 4.877,18.948 H -3.877 C -2.989,14.408 -1.44,8.089 1,0.668 Z" /></g><g
           transform="translate(327.1479,928.7213)"
           id="g56"><path
             id="path58"
             style="fill:#bc9776;fill-opacity:1;fill-rule:nonzero;stroke:none"
             d="m 0,0 c -10.194,0 -15.403,-10.526 -15.403,-30.026 0,-19.281 5.209,-30.031 15.403,-30.031 10.194,0 15.623,10.75 15.623,30.031 C 15.623,-10.526 10.194,0 0,0 m 0,-68.255 c -25.486,0 -42.329,15.18 -42.329,38.229 0,23.051 16.843,38.231 42.329,38.231 25.595,0 42.549,-15.18 42.549,-38.231 0,-23.049 -16.954,-38.229 -42.549,-38.229" /></g><g
           transform="translate(450.0135,935.318)"
           id="g60"><path
             id="path62"
             style="fill:#bc9776;fill-opacity:1;fill-rule:nonzero;stroke:none"
             d="m 0,0 c -2.44,-1.113 -3.437,-1.992 -3.768,-6.319 -0.334,-4.207 -0.443,-13.849 -0.443,-35.344 0,-21.945 -13.409,-32.468 -30.695,-32.468 -18.726,0 -35.568,8.088 -35.568,32.352 0,14.183 -0.112,33.247 -0.221,36.788 -0.113,2.554 -0.997,4.103 -3.436,4.991 l 0.222,0.888 c 3.989,-0.336 11.303,-0.445 14.958,-0.445 3.545,0 10.86,0.109 14.96,0.445 L -43.769,0 c -2.548,-0.888 -3.437,-2.328 -3.546,-4.991 -0.111,-3.541 -0.222,-22.605 -0.222,-38.889 0,-12.409 6.205,-18.615 18.06,-18.615 11.192,0 17.066,7.092 17.066,22.381 0,15.514 -0.886,28.477 -1.552,33.356 -0.663,4.539 -1.994,5.761 -4.211,6.758 l 0.223,0.888 c 2.437,-0.336 6.534,-0.445 8.863,-0.445 2.548,0 6.539,0.109 8.865,0.445 z" /></g><g
           transform="translate(482.9056,903.0198)"
           id="g64"><path
             id="path66"
             style="fill:#bc9776;fill-opacity:1;fill-rule:nonzero;stroke:none"
             d="m 0,0 h 0.443 c 8.202,0 11.525,4.429 11.525,13.406 0,7.868 -2.439,12.525 -11.745,12.525 C 0.114,21.165 0,14.737 0,0 m 46.097,-36.012 c -3.325,-3.323 -8.423,-5.985 -14.185,-5.985 -13.518,0 -21.606,7.534 -25.709,23.494 -1.549,5.978 -2.88,9.083 -4.54,10.305 C 1.108,-8.089 0.775,-8.089 0,-7.98 c 0,-12.961 0.114,-23.157 0.223,-26.708 0.109,-2.546 0.994,-4.095 3.545,-4.981 l -0.222,-0.888 c -4.098,0.334 -11.412,0.443 -15.292,0.443 -3.325,0 -10.639,-0.109 -14.737,-0.443 l -0.223,0.888 c 2.551,0.886 3.437,2.435 3.546,4.981 0.114,3.551 0.223,13.747 0.223,30.92 0,17.283 -0.109,27.371 -0.223,30.914 -0.109,3.439 -1.883,4.436 -3.546,4.545 v 0.886 c 9.197,0.445 17.286,0.772 24.378,0.772 19.948,0 38.008,-4.763 38.008,-19.943 0,-11.632 -9.972,-18.615 -21.054,-20.832 5.763,-1.549 10.748,-4.429 17.065,-13.957 7.092,-10.643 9.749,-14.52 14.074,-13.523 z" /></g><g
           transform="translate(560.4536,861.9064)"
           id="g68"><path
             id="path70"
             style="fill:#bc9776;fill-opacity:1;fill-rule:nonzero;stroke:none"
             d="M 0,0 C -4.098,0.334 -11.412,0.443 -14.958,0.443 -18.617,0.443 -25.931,0.334 -30.029,0 l -0.222,0.888 c 2.551,0.886 3.436,2.435 3.545,4.981 0.114,3.551 0.223,13.747 0.223,30.92 0,17.283 -0.109,27.371 -0.223,30.914 -0.109,2.551 -0.994,4.1 -3.545,4.988 l 0.222,0.888 c 4.098,-0.336 11.412,-0.445 15.071,-0.445 3.546,0 10.86,0.109 14.958,0.445 L 0.223,72.691 C -2.328,71.803 -3.214,70.254 -3.323,67.703 -3.432,64.16 -3.546,54.072 -3.546,36.789 -3.546,19.616 -3.432,9.42 -3.323,5.869 -3.214,3.323 -2.328,1.774 0.223,0.888 Z" /></g><g
           transform="translate(593.7994,860.4663)"
           id="g72"><path
             id="path74"
             style="fill:#bc9776;fill-opacity:1;fill-rule:nonzero;stroke:none"
             d="m 0,0 c -8.532,0 -17.617,1.549 -25.043,5.542 l -2.328,23.044 1.22,0.334 C -17.951,14.401 -6.76,8.089 1.883,8.089 c 3.659,0 8.977,1.665 8.977,7.425 0,6.206 -6.206,9.529 -14.183,13.406 -10.194,4.988 -21.943,10.86 -21.943,25.711 0,13.072 10.86,21.829 26.374,21.829 8.312,0 16.955,-2.111 21.277,-5.209 L 23.712,50.42 22.606,49.977 C 15.846,62.938 8.309,68.255 0.552,68.255 c -5.538,0 -8.198,-3.098 -8.198,-7.418 0,-5.434 5.983,-8.65 14.186,-12.634 C 17.62,42.769 28.92,37.009 28.92,23.16 28.92,8.641 17.177,0 0,0" /></g><g
           transform="translate(720.9925,862.7939)"
           id="g76"><path
             id="path78"
             style="fill:#bc9776;fill-opacity:1;fill-rule:nonzero;stroke:none"
             d="m 0,0 -0.223,-0.888 c -4.102,0.336 -11.411,0.445 -14.739,0.445 -3.875,0 -11.189,-0.109 -15.289,-0.445 L -30.472,0 c 2.549,0.888 3.432,2.437 3.546,4.983 0.109,3.549 0.22,13.745 0.22,30.92 0,7.868 0.109,13.958 0.223,18.946 C -33.132,39.226 -42.329,17.063 -48.646,0.663 h -5.428 c -7.424,17.84 -17.952,39.56 -25.709,55.074 0.223,-5.099 0.334,-11.412 0.557,-19.834 0.218,-12.855 1.326,-25.714 1.992,-29.588 0.665,-4.096 1.553,-5.318 3.768,-6.315 l -0.223,-0.888 c -2.657,0.336 -6.868,0.445 -8.754,0.445 -1.883,0 -6.317,-0.109 -8.974,-0.445 L -91.64,0 c 2.437,1.106 3.326,1.992 3.546,4.32 0.554,6.206 0.665,18.84 0.665,31.583 0,8.749 -0.22,24.045 -0.552,30.912 -0.113,2.553 -0.888,4.102 -3.436,4.988 l 0.222,0.888 c 4.212,-0.334 9.863,-0.443 14.292,-0.443 4.212,0 10.529,0.109 14.517,0.327 6.537,-14.955 12.078,-27.035 18.061,-39.11 5.322,11.966 11.968,28.25 16.068,39.11 3.88,-0.218 9.42,-0.327 13.074,-0.327 3.549,0 10.858,0.109 14.96,0.443 L 0,71.803 C -2.549,70.917 -3.437,69.368 -3.546,66.815 -3.659,63.271 -3.768,53.184 -3.768,35.903 -3.768,18.728 -3.659,8.532 -3.546,4.983 -3.437,2.437 -2.549,0.888 0,0" /></g><g
           transform="translate(140.617,912.3721)"
           id="g80"><path
             id="path82"
             style="fill:#bc9776;fill-opacity:1;fill-rule:nonzero;stroke:none"
             d="m 0,0 c -2.38,0 -4.512,-1.149 -6.973,-4.06 -5.014,-5.829 -10.057,-19.074 -10.699,-26.402 -0.41,-4.681 1.379,-6.45 4.02,-6.45 2.205,0 4.052,0.888 6.198,3.181 5.649,6.092 10.692,19.337 11.405,27.459 C 4.261,-2.736 3.529,0 0.088,0 Z m -0.493,1.412 c 10.59,0 17.419,-3.617 16.419,-15.012 -0.694,-7.942 -5.791,-16.775 -13.295,-20.837 -3.981,-2.117 -8.974,-3.711 -15.945,-3.711 -9.623,0 -17.395,2.918 -16.404,14.221 0.727,8.294 5.81,16.954 13.429,21.366 4.74,2.649 9.884,3.973 15.709,3.973 z" /></g><g
           transform="translate(167.117,912.5474)"
           id="g84"><path
             id="path86"
             style="fill:#bc9776;fill-opacity:1;fill-rule:nonzero;stroke:none"
             d="m 0,0 c 3.726,9.27 6.997,14.394 11.409,18.368 4.891,4.498 10.758,6.009 15.882,6.009 6.087,0 10.009,-2.567 9.569,-7.603 -0.365,-4.14 -4.472,-5.734 -7.035,-5.734 -2.56,0 -3.88,1.056 -3.503,2.293 0.305,1.499 0.912,3.354 1.044,4.853 0.313,2.57 -0.201,4.768 -2.055,4.768 -2.118,0 -3.534,-2.025 -5.256,-5.555 C 17.98,12.807 15.931,6.535 13.676,0 h 8.472 L 21.319,-1.412 13.07,-1.938 C 7.013,-18.631 1.045,-34.437 -2.222,-40.441 c -4.363,-7.504 -10.838,-12.894 -18.503,-16.781 -3.517,-1.85 -7.632,-2.468 -10.012,-2.468 -3.441,0 -6.556,2.738 -6.31,5.568 0.194,2.205 2.745,5.116 5.031,6.002 1.824,0.701 3.112,0.263 3.702,-1.068 1.942,-3.967 3.392,-6.616 6.215,-6.616 1.675,0 2.655,1.149 3.996,4.323 3.887,8.129 11.206,31.175 17.49,49.543 L -7.539,-1.412 -6.703,0 Z" /></g><g
           transform="translate(210.4641,1078.8832)"
           id="g88"><path
             id="path90"
             style="fill:#bc9776;fill-opacity:1;fill-rule:nonzero;stroke:none"
             d="M 0,0 -3.401,13.56 H -19.46 L -19.742,25.126 -34.24,25.081 -34.122,13.56 H -50.325 L -52.897,0 -34.122,8.645 V 0.294 c -0.009,0.002 -0.019,0.007 -0.028,0.007 0.002,-1.421 0.007,-2.772 0.007,-4.413 0,-10.947 -0.071,-17.442 -0.14,-19.709 -0.071,-1.622 -0.634,-2.605 -2.255,-3.176 l 0.14,-0.561 c 0.663,0.054 1.462,0.097 2.319,0.135 v -0.005 l 14.534,-0.01 v 0.01 c 0.821,-0.036 1.589,-0.078 2.228,-0.13 l 0.145,0.561 c -1.623,0.571 -2.182,1.554 -2.253,3.176 -0.045,1.469 -0.09,4.913 -0.116,10.038 l 14.972,-6.44 -0.303,9.349 -14.588,0.163 V 8.645 c 0,0 19.019,-8.844 19.46,-8.645" /></g><g
           transform="translate(253.3798,1073.172)"
           id="g92"><path
             id="path94"
             style="fill:#bc9776;fill-opacity:1;fill-rule:nonzero;stroke:none"
             d="m 0,0 -2.617,-0.173 c -0.005,0.002 -0.01,0.01 -0.015,0.01 l -11.878,-0.78 v -0.004 c -0.855,-0.019 -1.653,-0.029 -2.319,-0.017 l -0.104,-0.568 c 0.734,-0.209 1.353,-0.425 1.852,-0.725 0.507,-1.978 1.44,-5.723 1.44,-6.616 0,-2.783 -0.599,-4.82 -1.79,-6.113 -1.201,-1.305 -2.852,-1.945 -4.951,-1.945 -2.297,0 -4.036,0.759 -5.208,2.265 -1.172,1.518 -1.758,3.451 -1.758,5.793 0,2.4 0.327,4.37 0.986,5.903 0.665,1.544 1.665,2.93 3.01,4.183 1.346,1.25 3.065,2.624 5.168,4.142 3.324,2.397 5.962,4.621 7.921,6.675 1.952,2.051 3.342,4.128 4.176,6.234 0.831,2.091 1.246,4.422 1.246,6.966 0,1.798 -0.195,3.223 -0.588,4.249 l -0.393,1.026 -14.38,-0.057 c 0,0 0.114,-5.365 0.114,-7.575 0,-1.944 -0.732,-3.612 -2.205,-4.983 -1.466,-1.372 -3.543,-3.022 -6.227,-4.981 -1.371,-1.026 -2.797,-2.146 -4.289,-3.345 -1.493,-1.198 -2.885,-2.517 -4.183,-3.996 -1.294,-1.466 -2.331,-3.131 -3.117,-5.023 -0.78,-1.876 -1.173,-4.008 -1.173,-6.407 0,-3.916 0.846,-7.047 2.532,-9.392 1.684,-2.345 4.055,-4.021 7.113,-5.047 3.051,-1.04 6.679,-1.547 10.888,-1.547 4.205,0 7.928,0.588 11.178,1.76 3.249,1.173 5.807,2.97 7.667,5.396 1.849,2.411 2.783,5.502 2.783,9.27 0,1.078 -0.086,2.106 -0.258,3.077 C 0.452,-1.371 0.239,-0.585 0,0" /></g><g
           transform="translate(381.2235,1084.198)"
           id="g96"><path
             id="path98"
             style="fill:#bc9776;fill-opacity:1;fill-rule:nonzero;stroke:none"
             d="m 0,0 c -0.952,-1.492 -2.433,-2.238 -4.436,-2.238 h -0.732 v 17.451 h 0.805 c 2.106,0 3.598,-0.746 4.477,-2.238 C 0.992,11.483 1.431,9.498 1.431,7.006 1.431,3.823 0.959,1.492 0,0 m -39.55,-8.326 c -0.493,-0.239 -1.04,-0.452 -1.651,-0.613 -0.614,-0.173 -1.308,-0.265 -2.092,-0.265 -1.513,0 -2.771,0.758 -3.778,2.276 -0.999,1.52 -1.499,3.984 -1.499,7.406 0,9.82 2.904,14.735 8.726,14.735 h 0.294 z M 11.002,17.011 C 7.7,19.088 2.871,20.128 -3.477,20.128 h -35.268 c -7.433,0 -13.127,-1.691 -17.085,-5.062 -3.962,-3.37 -5.94,-8.166 -5.94,-14.374 0,-4.927 1.54,-8.738 4.621,-11.403 3.079,-2.664 7.208,-3.996 12.39,-3.996 0.879,0 1.758,0.026 2.639,0.081 l -2.409,-7.94 c -0.749,-2.001 -1.298,-3.893 -1.573,-5.184 l -1.092,-3.6 c -0.346,-0.379 -0.722,-0.732 -1.376,-0.962 l 0.14,-0.562 c 0.635,0.053 1.397,0.095 2.212,0.131 l 14.787,-0.01 v 0.003 c 0.76,-0.036 1.483,-0.074 2.082,-0.124 l 0.145,0.562 c -0.948,0.334 -1.464,0.867 -1.801,1.528 l 4.65,21.433 v 24.564 h 7.26 V -7.594 h 14.512 c 7.288,0 12.53,1.334 15.732,3.998 3.197,2.663 4.803,6.18 4.803,10.524 0,4.647 -1.653,8.006 -4.95,10.083" /></g><g
           transform="translate(314.2764,1054.8481)"
           id="g100"><path
             id="path102"
             style="fill:#bc9776;fill-opacity:1;fill-rule:nonzero;stroke:none"
             d="m 0,0 c -0.052,1.826 -0.111,3.948 -0.142,5.467 -0.005,0.649 -0.012,1.369 -0.017,2.122 l 0.261,41.317 -15.05,0.209 0.118,-22.589 h -13.934 v 9.604 c 0,4.209 -1.525,7.487 -4.583,9.83 -3.048,2.347 -7.584,3.517 -13.6,3.517 h -11.216 l 0.074,-13.932 14.604,9.022 c 0,0 0.062,-3.202 0.062,-4.92 V 2.335 c 0,-0.476 0.012,-1.283 0.028,-2.134 -0.073,-1.613 -0.637,-2.593 -2.25,-3.164 l 0.14,-0.559 c 0.64,0.05 1.405,0.092 2.224,0.128 h 14.636 c 0.817,-0.036 1.582,-0.078 2.221,-0.128 l 0.145,0.559 c -1.296,0.457 -1.8,1.279 -2.032,2.375 l -0.361,17.661 c 0,0.317 -0.002,0.559 -0.002,0.883 -0.005,-0.002 -0.012,-0.005 -0.016,-0.007 l -0.074,3.662 H -14.83 V 6.099 c -0.026,-2.819 -0.056,-4.849 -0.087,-5.884 -0.071,-1.624 -0.635,-2.605 -2.255,-3.178 l 0.14,-0.559 c 0.668,0.052 1.473,0.097 2.337,0.132 V -3.394 H -0.173 C 0.644,-3.43 1.412,-3.472 2.049,-3.522 l 0.144,0.559 C 0.658,-2.421 0.118,-1.471 0,0" /></g><g
           transform="translate(476.533,1088.4719)"
           id="g104"><path
             id="path106"
             style="fill:#bc9776;fill-opacity:1;fill-rule:nonzero;stroke:none"
             d="m 0,0 c -0.514,-1.694 -1.087,-3.224 -1.717,-4.583 l -0.734,-1.611 h -0.666 c -1.511,0 -2.504,0.625 -2.963,1.904 -0.467,1.265 -0.701,3.276 -0.701,6.007 0,1.665 0.087,3.172 0.26,4.517 0.166,1.331 0.353,2.691 0.545,4.062 h 2.786 c 1.08,0 2.003,-0.426 2.79,-1.279 C 0.379,8.164 0.772,6.848 0.772,5.088 0.772,3.382 0.512,1.677 0,0 m -38.818,-13.24 c -0.493,-0.242 -1.038,-0.455 -1.651,-0.614 -0.614,-0.173 -1.306,-0.268 -2.092,-0.268 -1.511,0 -2.771,0.761 -3.778,2.279 -0.997,1.518 -1.497,3.984 -1.497,7.406 0,9.818 2.904,14.733 8.724,14.733 h 0.294 z m 49.562,3.889 c 1.272,2.878 2.21,5.329 2.823,7.326 0.606,2.011 0.912,3.837 0.912,5.502 0,3.423 -1.172,6.234 -3.515,8.432 -2.345,2.198 -6.255,3.304 -11.731,3.304 h -37.244 c -7.435,0 -13.129,-1.693 -17.084,-5.064 -3.965,-3.368 -5.943,-8.164 -5.943,-14.372 0,-4.929 1.539,-8.738 4.623,-11.403 3.077,-2.664 7.208,-3.998 12.388,-3.998 4.057,0 7.613,0.68 10.67,2.025 3.051,1.346 5.628,2.8 7.734,4.359 v 23.536 h 7.039 c -0.246,-1.265 -0.466,-2.702 -0.658,-4.289 -0.202,-1.585 -0.294,-3.29 -0.294,-5.088 0,-4.742 1.014,-8.193 3.044,-10.336 2.025,-2.158 5.362,-3.238 10.004,-3.238 h 1.32 l -8.904,-24.491 0.983,0.007 32.007,-0.007 v 11.407 L 3.072,-32.21 Z" /></g><g
           transform="translate(525.749,1091.3591)"
           id="g108"><path
             id="path110"
             style="fill:#bc9776;fill-opacity:1;fill-rule:nonzero;stroke:none"
             d="m 0,0 -9.586,-0.026 h -3.37 v 7.631 c 0,1.121 0.071,4.458 0.071,4.458 l -14.86,-0.13 0.123,-8.735 v -8.433 h 5.646 l 6.99,0.019 -6.757,-34.77 15.336,-0.048 v 0.019 l 14.304,-0.019 1.364,11.95 -16.033,-7.106 C -6.772,-34.257 0,0 0,0" /></g><g
           transform="translate(580.4289,1055.0638)"
           id="g112"><path
             id="path114"
             style="fill:#bc9776;fill-opacity:1;fill-rule:nonzero;stroke:none"
             d="m 0,0 c -0.064,2.115 -0.007,20.486 -0.007,22.544 0,3.318 -0.419,6.208 -1.246,8.645 -0.831,2.452 -2.238,4.396 -4.216,5.834 -1.978,1.44 -4.728,2.359 -8.252,2.745 l -3.868,9.034 h -13.776 l 5.18,-10.206 c -4.741,-1.611 -8.311,-4.382 -10.701,-8.312 -2.143,-3.524 -3.178,-5.67 -3.406,-10.139 -0.049,-0.15 -0.459,-14.29 -0.379,-20.448 -0.137,-1.41 -0.675,-2.345 -2.172,-2.873 l 0.142,-0.562 c 1.019,0.081 2.369,0.138 3.755,0.18 h 11.577 c 1.379,-0.042 2.729,-0.099 3.747,-0.18 l 0.145,0.562 c -1.469,0.516 -1.997,1.44 -2.149,2.799 l -0.192,19.129 c 0,4.396 0.306,5.976 0.92,8.6 0.606,2.613 1.44,4.491 2.491,5.635 1.052,1.146 2.258,1.734 3.631,1.734 1.272,0 2.258,-0.654 2.971,-1.947 0.705,-1.291 1.058,-3.382 1.058,-6.274 0,-2.544 -0.033,-3.406 -0.106,-6.431 -0.074,-3.037 -0.14,-5.993 -0.187,-8.871 -0.048,-2.891 -0.074,-5.407 -0.074,-7.553 0,-1.528 0.024,-3.086 0.05,-4.389 -0.223,-1.13 -0.734,-1.968 -2.049,-2.432 l 0.14,-0.562 c 1.021,0.081 2.371,0.138 3.756,0.18 h 11.578 c 1.378,-0.042 2.728,-0.099 3.747,-0.18 l 0.144,0.562 C 0.63,-2.605 0.069,-1.625 0,0" /></g><g
           transform="translate(665.9152,1056.2493)"
           id="g116"><path
             id="path118"
             style="fill:#bc9776;fill-opacity:1;fill-rule:nonzero;stroke:none"
             d="m 0,0 h -3.082 c -3.325,0 -5.772,0.988 -7.34,2.975 -1.568,1.973 -2.347,4.893 -2.347,8.759 v 6.535 c 0,5.976 0.602,10.734 1.8,14.282 1.201,3.548 2.741,6.095 4.621,7.67 1.888,1.558 3.854,2.344 5.907,2.344 L 11.687,33.648 11.528,47.487 H -2.054 c -4.746,0 -9.04,-1.013 -12.882,-3.053 -3.84,-2.027 -6.888,-5.187 -9.133,-9.495 -2.255,-4.309 -3.383,-9.894 -3.383,-16.736 v -3.667 c 0,-6.815 1.62,-11.748 4.849,-14.83 3.226,-3.079 8.32,-4.626 15.27,-4.626 H 0 L 9.335,-4.924 9.358,0.057 H 0.104 Z" /></g><g
           transform="translate(621.5117,1057.0845)"
           id="g120"><path
             id="path122"
             style="fill:#bc9776;fill-opacity:1;fill-rule:nonzero;stroke:none"
             d="m 0,0 c -0.682,-0.924 -1.585,-1.391 -2.7,-1.391 -1.706,0 -2.553,1.099 -2.553,3.288 v 5.325 h 2.188 c 1.606,0 2.686,-0.367 3.245,-1.099 C 0.741,5.4 1.018,4.476 1.018,3.354 1.018,2.039 0.677,0.924 0,0 m 10.907,9.884 c -1.876,1.239 -4.829,1.864 -8.865,1.864 h -7.295 v 17.868 c 0,0 16.414,-8.941 16.852,-8.751 L 10.649,34.51 H -5.253 v 12.2 h -14.581 l -0.012,-9.429 V 34.51 h -5.223 -10.976 l -0.947,-13.643 17.146,8.752 V 15.073 2.845 -5.765 h 9.263 1.447 9.863 c 4.427,0 7.696,0.947 9.813,2.844 2.118,1.898 3.174,4.236 3.174,7.007 0,2.629 -0.936,4.557 -2.807,5.798" /></g><g
           transform="translate(442.3593,150.8523)"
           id="g124"><path
             id="path126"
             style="fill:#bc9776;fill-opacity:1;fill-rule:nonzero;stroke:none"
             d="m 0,0 -14.614,8.33 c 2.413,1.568 4.784,1.154 5.372,1.012 2.804,-0.678 8.645,-3.26 13.001,-5.301 z m -12.167,39.842 c -1.952,-2.123 -4.806,-3.451 -8.492,-4.02 4.475,2.809 8.186,5.798 11.152,8.951 -0.505,-1.765 -1.332,-3.486 -2.66,-4.931 M -12.369,26.483 V 19.59 H 18.228 L 8.686,9.337 C 4.635,11.281 -3.463,15.038 -7.629,16.042 -11.897,17.063 -18.276,16.049 -22.587,10 -25.372,8.105 -41.268,-1.739 -55.96,9.519 l -0.343,0.23 c -0.083,0.052 -8.456,5.415 -10.017,24.789 l -0.144,1.812 -5.673,3.245 0.099,0.429 c 1.538,6.698 3.556,12.71 11.324,12.71 h 0.055 c 0.109,0 6.322,-0.064 8.188,-6.528 l 1.663,-5.76 40.73,42.632 c 0.241,-1.531 0.286,-3.461 -0.157,-5.768 -1.473,-7.691 -8.493,-20.201 -33.576,-36.118 l 3.69,-5.82 c 15.796,10.024 26.589,19.953 32.312,29.652 0.054,-1.684 -0.119,-3.567 -0.711,-5.592 -2.527,-8.693 -11.774,-16.836 -26.743,-23.548 l 1.741,-3.885 -0.429,-2.603 c 3.186,-0.523 6.146,-0.784 8.882,-0.784 7.93,0 13.958,2.196 17.975,6.566 6.528,7.096 5.301,17.407 4.678,20.777 0.206,0.576 0.403,1.151 0.566,1.734 2.369,8.37 -0.296,15.073 -1.736,17.849 0.062,0.301 0.147,0.604 0.199,0.905 1.599,9.133 -2.276,14.456 -2.724,15.033 L -8.56,94.641 -48.229,53.125 c -3.581,5.028 -9.27,6.501 -12.383,6.501 -0.045,-0.002 -0.09,-0.002 -0.137,0 -13.075,0 -16.402,-11.257 -17.783,-17.098 l -4.133,-5.51 9.644,-4.858 C -70.898,11.923 -61.756,5.076 -60.027,3.953 -45.273,-7.25 -28.397,-1.838 -19.972,3.458 L 1.329,-8.693 34.058,26.483 Z" /></g><g
           transform="translate(382.723,194.3357)"
           id="g128"><path
             id="path130"
             style="fill:#bc9776;fill-opacity:1;fill-rule:nonzero;stroke:none"
             d="m 0,0 c 0,-0.976 -0.789,-1.767 -1.765,-1.767 -0.975,0 -1.764,0.791 -1.767,1.767 0,0.976 0.792,1.765 1.767,1.765 C -0.791,1.765 0,0.976 0,0 m -6.968,0 c 0,-2.871 2.335,-5.204 5.203,-5.204 1.391,0 2.696,0.543 3.679,1.526 0.983,0.98 1.523,2.288 1.523,3.678 0,2.868 -2.333,5.201 -5.202,5.201 -2.868,0 -5.203,-2.333 -5.203,-5.201" /></g><g
           transform="translate(520.4794,93.9785)"
           id="g132"><path
             id="path134"
             style="fill:#bc9776;fill-opacity:1;fill-rule:nonzero;stroke:none"
             d="M 0,0 -32.293,32.291 H 7.371 L 7.437,-0.005 Z m -206.049,32.291 h 38.624 l -32.153,-32.151 -6.473,0.004 z m -21.542,489.824 19.048,12.85 30.256,-20.839 -27.736,0.003 v 13.507 z m -184.663,-42.686 4.346,-2.98 0.517,-0.357 -4.865,-1.246 z m 57.241,235.924 27.082,-47 c -12.783,-7.809 -23.47,-18.37 -31.246,-30.822 l -53.025,31.27 0.014,46.549 z m 567.602,-38.831 -34.487,-43.996 -33.991,33.989 39.209,48.871 29.254,0.002 z m -5.886,-200.058 5.966,4.024 0.005,-5.54 z M 6.341,527.34 6.369,514.06 -25.649,514.057 5.31,534.917 22.281,523.293 Z M -206.042,156.046 h 43.471 l -43.473,-45.995 z m 0.005,71.817 c 2.257,-7.195 5.256,-14.32 9.259,-21.127 12.013,-20.429 30.753,-34.783 55.839,-42.954 h -65.103 z m 62.492,-17.679 -2.309,42.777 c 2.269,-2.258 4.465,-4.624 6.566,-7.118 17.558,-20.857 26.76,-47.203 26.459,-75.072 z m -6.163,-4.67 30.526,-39.174 c -43.991,7.785 -66.13,30.557 -76.604,56 z m -48.823,75.23 c 16.196,-2.859 31.414,-9.872 44.534,-20.467 l 2.129,-39.413 z m 39.854,-63.722 -40.458,14.773 c -4.477,14.934 -5.5,30.247 -5.019,43.582 z m 25.303,33.8 c -11.722,13.927 -26.05,24.465 -41.865,31.083 h 37.63 c 18.825,0 34.138,-15.313 34.138,-34.139 v -83.987 h -1.89 c 2.051,32.258 -7.8,63.035 -28.013,87.043 m -72.658,74.302 c 6.163,-1.715 10.106,-6.049 14.474,-10.943 6.002,-6.72 12.802,-14.339 26.177,-14.339 13.392,0 20.195,7.617 26.202,14.339 5.637,6.308 10.507,11.758 20.433,11.758 9.917,0 14.785,-5.45 20.415,-11.758 6.004,-6.72 12.807,-14.339 26.189,-14.339 13.39,0 20.195,7.617 26.197,14.339 5.637,6.308 10.504,11.758 20.428,11.758 9.927,0 14.794,-5.45 20.432,-11.758 3.363,-3.766 7.006,-7.783 11.892,-10.613 l 0.029,-13.93 h -68.329 c -16.869,0 -31.433,-10.036 -38.058,-24.446 -6.622,14.41 -21.184,24.446 -38.058,24.446 h -68.426 z m 0.002,35.827 c 6.163,-1.717 10.104,-6.05 14.472,-10.943 6.002,-6.72 12.802,-14.339 26.177,-14.339 13.392,0 20.197,7.617 26.202,14.337 5.637,6.31 10.507,11.76 20.433,11.76 9.917,0 14.785,-5.45 20.415,-11.758 6.004,-6.72 12.807,-14.339 26.189,-14.339 13.39,0 20.195,7.617 26.197,14.339 5.637,6.308 10.504,11.758 20.428,11.758 9.927,0 14.794,-5.45 20.432,-11.758 3.346,-3.747 6.968,-7.745 11.816,-10.573 l 0.055,-26.343 c -2.11,1.835 -4.069,3.962 -6.104,6.241 -6.004,6.724 -12.809,14.339 -26.199,14.339 -13.387,0 -20.192,-7.615 -26.194,-14.339 -5.637,-6.308 -10.507,-11.755 -20.431,-11.755 -9.919,0 -14.784,5.447 -20.419,11.755 -6,6.724 -12.805,14.339 -26.185,14.339 -13.389,0 -20.194,-7.615 -26.201,-14.337 -5.635,-6.31 -10.505,-11.757 -20.434,-11.757 -9.912,0 -14.775,5.447 -20.407,11.755 -5.038,5.644 -10.654,11.902 -20.244,13.768 z m 0.002,39.193 20.391,-0.003 0.387,-21.677 h 66.052 l 0.398,21.68 33.761,-0.003 0.391,-21.677 h 66.055 l 0.398,21.68 H 6.606 l 0.107,-51.166 c -2.085,1.824 -4.02,3.929 -6.031,6.182 -6.004,6.722 -12.809,14.339 -26.199,14.339 -13.387,0 -20.192,-7.617 -26.194,-14.339 -5.637,-6.308 -10.507,-11.758 -20.431,-11.758 -9.919,0 -14.784,5.45 -20.417,11.758 -6.002,6.722 -12.807,14.339 -26.187,14.339 -13.389,0 -20.197,-7.617 -26.201,-14.337 -5.635,-6.31 -10.505,-11.758 -20.434,-11.758 -9.912,0 -14.775,5.448 -20.407,11.756 -5.036,5.642 -10.654,11.899 -20.242,13.766 z m 0,17.34 27.992,0.002 0.384,21.675 h 50.86 l 0.398,-21.68 48.951,0.005 0.391,21.675 h 50.865 l 0.398,-21.68 H 6.568 l 0.021,-9.604 -32.378,0.002 -0.398,-21.679 h -50.865 l -0.391,21.675 -48.951,0.004 -0.398,-21.679 h -50.86 l -0.384,21.677 h -27.992 z m 0.003,45.493 31.734,-0.005 83.928,-0.012 -0.029,0.019 63.011,0.003 H 6.473 l 0.081,-37.765 h -24.749 l -0.398,21.68 h -66.055 l -0.391,-21.677 -33.761,-0.003 -0.398,21.68 h -66.052 l -0.387,-21.677 h -20.391 z m 0.002,21.85 20.498,-14.119 -20.5,0.005 z m 90.79,-14.129 -55.948,0.01 -34.842,24.176 v 11.511 l 38.968,-0.007 z m -252.113,35.747 38.312,0.002 -0.052,-0.035 40.128,-0.005 -57.026,-14.595 z m -24.974,7.733 h -19.925 l 0.003,13.648 z m 63.373,0.005 -49.69,-0.005 -33.603,23.02 0.012,34.034 z m -42.821,93.473 c -1.705,-6.435 -2.669,-13.247 -2.864,-20.298 l -37.594,-0.157 0.01,30.865 z m 2.061,7.456 -42.507,10.939 0.01,33.773 49.171,-28.998 c -2.735,-5.133 -4.974,-10.403 -6.674,-15.714 m 150.131,-34.841 -96.829,-65.306 -94.17,64.508 z m -126.512,135.082 66.026,0.004 v -32.323 c -14.207,-0.576 -28.271,-4.309 -41.118,-10.905 z m 69.892,-39.968 c 15.959,0 31.639,-4.268 45.4,-12.378 14.16,-8.022 25.808,-19.836 33.75,-34.273 3.683,-6.215 6.542,-13.209 8.529,-20.9 1.746,-6.012 2.705,-12.639 2.956,-19.685 l -181.292,-0.758 c 0.203,6.629 1.099,13.036 2.783,19.15 1.828,7.771 4.86,15.426 9.036,22.797 7.75,14.091 19.398,25.82 33.7,33.925 13.877,7.93 29.486,12.122 45.138,12.122 m 45.249,-3.453 c -12.769,6.724 -26.919,10.526 -41.381,11.102 v 32.323 l 66.324,0.005 z m 37.845,-34.709 c -7.878,12.594 -18.544,23.134 -31.147,30.839 l 27.165,47.3 152.548,0.01 z M 1.009,661.037 -182.6,615.134 c -1.76,5.495 -3.993,10.644 -6.62,15.391 l 161.302,84.849 28.614,0.002 z m 7.662,12.518 -0.239,41.821 42.064,0.003 z M 135.88,663.706 V 613.822 H 75.771 v 37.276 H 68.037 V 613.822 H 9.015 l -0.282,48.858 52.701,52.699 h 22.771 z m 0,10.938 -40.737,40.737 40.737,0.002 z m 7.733,40.739 29.788,0.003 -29.788,-37.128 z m 66.275,-125.584 -66.275,-0.277 v 66.552 z m -26.279,37.218 28.984,36.978 0.029,-65.988 z m -9.41,-112.964 -50.02,0.009 88.452,59.655 0.014,-33.731 z m 13.827,0 24.624,16.608 0.005,-16.613 z m -74.908,-7.724 49.614,-0.007 -20.135,-13.582 -53.506,13.589 z m 30.495,75.162 v 0.298 l 67.569,0.282 -99.644,-67.206 -96.907,66.384 57.722,0.242 z m -7.733,8.001 -63.56,-0.266 H 9.155 l -0.095,16.86 h 126.82 z m -186.854,-83.17 -51.739,-34.856 -50.702,34.922 38.189,-0.005 -0.088,-0.061 z M -180.471,607.694 1.054,653.076 1.421,588.93 -177.778,588.179 c -0.227,6.94 -1.139,13.494 -2.693,19.515 m 176.255,-26.523 -98.445,-66.325 -95.122,65.515 z m 10.623,-85.676 -34.359,-23.572 -1.792,-1.206 -60.24,-0.004 52.854,35.611 H 6.383 Z M 6.459,470.717 H -15.9 l 22.264,14.998 0.062,-0.043 z M -38.349,219.403 c 3.105,1.115 38.681,14.782 39.862,51.073 8.911,-14.529 4.96,-42.307 -10.89,-66.999 v -0.003 c -9.489,-14.784 -21.722,-26.49 -34.446,-32.958 -11.296,-5.742 -21.606,-6.647 -29.269,-2.615 -0.72,7.24 -1.073,35.651 34.743,51.502 m -42.542,-55.624 h -14.735 v 83.987 c 0,18.826 15.313,34.139 34.133,34.139 h 21.372 c -13.61,-7.163 -26.568,-19.617 -36.576,-35.207 -21.077,-32.842 -22.669,-68.496 -4.194,-82.919 m 10.706,78.741 c 9.49,14.785 21.722,26.488 34.446,32.959 6.665,3.389 12.989,5.092 18.624,5.092 3.898,0 7.468,-0.822 10.597,-2.458 4.112,-37.983 -32.886,-50.911 -34.484,-51.446 l -0.339,-0.13 c -31.95,-14.081 -38.473,-37.937 -39.425,-51.5 -9.306,14.387 -5.448,42.511 10.581,67.483 m 30.163,-78.741 c 13.821,7.111 27.004,19.707 37.154,35.517 3.984,6.208 7.266,12.518 9.853,18.764 L 7.096,163.779 Z M 7.21,110.018 -36.618,156.046 H 7.113 Z M 44.025,517.771 5.348,544.266 -39.493,514.057 H -89.989 L 5.306,578.262 99.02,514.065 58.639,514.062 Z m 152.63,-38.756 -44.008,11.174 23.915,16.13 36.098,-0.004 0.007,-16.36 -12.149,-8.335 z m -600.086,3.742 -8.821,6.123 0.005,17.565 h 31.218 l 25.083,-17.184 -41.478,-10.618 z m 144.672,31.381 -45.031,0.007 95.245,64.238 93.309,-64.266 -49.41,0.007 -43.85,30.199 -41.388,-27.914 z m 52.713,-474.112 0.002,58.762 54.115,57.258 H -47.298 L 7.231,98.774 7.354,40.026 Z M -70.394,12.57 -49.721,32.291 h 6.49 L -10.945,0.007 -57.864,0.04 Z m -5.597,-5.339 7.182,-7.184 -14.7,0.012 z m -14.124,25.06 h 29.188 L -75.863,18.039 Z M -118.258,12.7 -99.859,31.097 -81.462,12.7 -94.705,0.066 -105.022,0.073 Z m -5.469,-5.469 7.494,-7.15 -14.633,0.011 z m -15.066,25.06 h 29.19 l -14.252,-14.252 z m 9.469,-19.721 -12.473,-12.471 -46.85,0.034 32.16,32.158 h 6.49 z m 349.734,452.434 -0.105,258.118 -640.226,-0.038 -0.074,-258.203 206.239,52.793 L -213.785,-7.584 15.19,-7.748 14.095,517.39 Z" /></g></g></g></g></svg>