<?xml version="1.0" standalone="no"?>
<!DOCTYPE svg PUBLIC "-//W3C//DTD SVG 20010904//EN"
 "http://www.w3.org/TR/2001/REC-SVG-20010904/DTD/svg10.dtd">
<svg version="1.0" xmlns="http://www.w3.org/2000/svg"
 width="736.000000pt" height="463.000000pt" viewBox="0 0 736.000000 463.000000"
 preserveAspectRatio="xMidYMid meet">

<g transform="translate(0.000000,463.000000) scale(0.100000,-0.100000)"
fill="#fff" stroke="none">
<path d="M0 2315 l0 -2315 3680 0 3680 0 0 2315 0 2315 -3680 0 -3680 0 0
-2315z m4377 1845 l-6 -50 56 0 56 0 -7 41 c-4 22 -4 44 -1 49 7 12 100 -23
128 -47 11 -10 26 -32 33 -49 8 -20 23 -34 40 -38 14 -4 27 -6 28 -4 1 2 10
16 20 32 l18 29 24 -29 c12 -16 28 -41 34 -55 6 -15 42 -47 79 -72 96 -66 115
-89 107 -128 -6 -31 -5 -31 28 -27 25 3 37 -1 46 -15 10 -16 7 -24 -15 -47
-19 -20 -29 -43 -33 -75 l-5 -47 34 7 c19 4 49 15 67 26 l33 19 24 -53 c27
-61 55 -152 55 -178 0 -15 -6 -12 -32 12 -34 31 -75 37 -122 19 -32 -12 -33
-30 -2 -59 31 -29 83 -37 128 -18 l36 15 7 -71 c11 -118 -17 -272 -70 -393
-38 -87 -161 -254 -186 -254 -4 0 -16 14 -26 31 -40 68 -112 88 -376 105 -128
8 -140 18 -83 72 34 31 37 39 32 71 -8 44 -8 57 -1 101 3 19 1 42 -4 50 -9 12
-15 10 -39 -13 l-28 -27 -29 30 -29 30 70 73 c39 39 83 93 97 118 34 61 114
132 165 147 80 24 165 9 245 -44 54 -35 56 -24 3 14 -23 17 -71 39 -105 48
l-63 18 44 22 c84 43 121 100 131 204 l6 55 -24 -68 c-46 -131 -65 -148 -228
-208 -115 -42 -154 -68 -217 -141 -30 -34 -68 -76 -85 -91 -27 -25 -31 -26
-40 -11 -5 9 -38 52 -73 95 -67 85 -92 101 -222 149 -105 39 -151 64 -172 94
-23 31 -58 121 -58 146 0 11 -4 20 -8 20 -14 0 6 -108 27 -148 23 -45 42 -63
103 -95 l48 -25 -52 -12 c-58 -12 -122 -46 -153 -80 -15 -17 -9 -15 27 9 87
59 174 75 261 49 59 -18 137 -100 183 -193 34 -69 37 -79 26 -109 -20 -53 -15
-65 53 -135 36 -37 65 -71 65 -76 0 -4 -12 -19 -26 -32 l-26 -24 -28 26 -28
27 -12 -22 c-13 -25 -6 -67 16 -91 13 -15 8 -17 -53 -22 -38 -4 -93 -7 -123
-7 -56 -1 -154 -19 -201 -38 -25 -10 -83 -69 -91 -93 -6 -19 -24 -4 -90 80
-75 93 -141 230 -162 333 -15 74 -22 288 -10 300 3 4 22 0 41 -9 47 -19 92
-10 127 26 24 25 25 29 11 41 -8 7 -35 15 -58 17 -39 5 -48 1 -80 -27 -25 -22
-37 -27 -37 -17 0 21 36 137 60 191 l21 46 39 -20 c56 -28 90 -27 90 4 0 36
-18 79 -42 97 -18 14 -19 18 -7 37 11 17 20 20 47 16 33 -5 33 -5 27 29 -6 32
-3 37 47 76 29 24 72 54 95 68 28 16 52 42 72 79 17 30 35 54 39 54 4 0 15
-13 24 -30 15 -27 19 -29 47 -19 19 7 33 20 37 34 8 33 44 63 100 85 27 10 53
19 58 20 5 0 6 -22 3 -50z m-217 -1356 c0 -3 -14 -17 -32 -32 -36 -30 -64 -88
-73 -152 -4 -25 -8 -47 -11 -49 -6 -6 -113 62 -136 86 -20 21 -20 24 -4 48 17
25 87 75 106 75 25 0 4 -57 -38 -102 -14 -16 -21 -28 -15 -28 19 0 83 79 83
104 0 30 16 43 60 49 19 2 41 5 48 5 6 1 12 -1 12 -4z m278 -14 c22 -18 23
-24 14 -65 -9 -44 -4 -92 18 -165 5 -19 10 -47 10 -62 0 -26 -3 -28 -39 -28
-64 0 -69 5 -60 58 4 26 12 60 18 75 14 36 14 101 0 150 -16 57 -1 71 39 37z
m357 -1 c5 -5 16 -28 25 -50 8 -24 30 -53 50 -68 l34 -26 -31 40 c-42 53 -58
95 -37 95 43 0 124 -67 124 -104 0 -2 -35 -28 -77 -56 l-78 -52 -6 49 c-8 59
-37 120 -80 163 l-32 32 49 -7 c27 -4 53 -11 59 -16z m-509 -31 c-34 -39 -76
-130 -76 -165 0 -27 -27 4 -46 52 -15 41 -15 46 2 82 22 43 71 73 122 73 l34
0 -36 -42z m353 28 c59 -31 78 -100 43 -165 -23 -43 -35 -41 -45 9 -5 22 -28
69 -52 105 l-43 65 34 0 c19 0 48 -7 63 -14z m-262 -137 c-3 -32 -16 -79 -31
-108 -25 -51 -25 -67 0 -33 12 16 13 15 14 -5 0 -18 -6 -23 -27 -23 -40 0
-150 27 -210 51 -49 20 -53 24 -53 54 0 18 10 54 22 81 l22 49 6 -36 c7 -38
40 -98 66 -120 9 -7 20 -22 24 -34 8 -19 9 -19 9 3 1 12 11 42 23 65 l21 42 9
-35 c16 -59 23 -52 23 24 0 65 3 77 29 111 l30 39 14 -35 c9 -22 12 -54 9 -90z
m160 80 c21 -32 27 -53 27 -97 1 -32 -3 -68 -8 -81 -5 -15 -5 -21 2 -17 5 3
15 26 21 51 6 25 16 43 20 40 5 -3 17 -28 26 -55 l17 -51 34 46 c42 55 66 108
58 129 -3 9 -2 16 3 16 13 0 42 -63 49 -108 6 -36 5 -38 -39 -59 -87 -42 -235
-72 -249 -51 -15 24 -8 31 12 13 25 -23 25 -14 0 36 -29 57 -39 120 -27 179 5
27 13 50 18 50 5 0 21 -18 36 -41z m-2792 -473 c9 -52 14 -104 11 -114 -13
-39 -50 -44 -333 -40 -254 3 -270 2 -313 -18 -56 -26 -107 -83 -116 -129 -3
-20 -4 -38 -1 -42 9 -9 201 -21 437 -29 187 -6 220 -5 254 10 21 9 39 16 41
16 7 0 37 -190 32 -203 -3 -9 -25 -26 -49 -38 l-43 -22 -260 12 c-143 6 -293
15 -332 18 l-73 6 0 -26 c0 -25 34 -74 75 -109 134 -115 538 -180 627 -101 15
13 17 10 28 -44 6 -32 16 -74 21 -93 16 -61 11 -79 -23 -100 -27 -17 -51 -20
-139 -20 -166 0 -306 43 -422 128 -160 119 -214 280 -218 650 -2 142 0 163 20
207 31 70 66 112 114 137 40 21 51 22 222 18 322 -9 372 -7 391 12 10 9 21 15
24 13 4 -3 15 -47 25 -99z m1049 4 c22 -55 36 -156 36 -263 l0 -88 32 17 c41
21 142 29 194 15 76 -20 130 -66 166 -139 l33 -67 6 -210 c7 -216 14 -264 50
-309 l21 -27 -103 3 -104 3 -19 55 c-15 43 -20 97 -25 255 -7 228 -12 246 -80
266 -52 16 -105 4 -144 -31 l-32 -28 0 -204 c0 -200 0 -204 27 -260 l27 -58
-99 0 -98 0 -18 48 c-15 41 -18 102 -24 482 -7 455 -10 477 -55 544 l-24 36
108 0 109 0 16 -40z m-488 -6 c4 -15 4 -85 0 -155 -6 -120 -6 -129 11 -129 10
0 74 7 142 15 69 9 128 12 132 8 4 -4 3 -30 -2 -58 -10 -50 3 -129 22 -141 36
-22 -43 -62 -95 -48 -41 10 -94 77 -112 142 l-16 58 -42 -5 c-40 -6 -41 -7
-48 -51 -3 -25 -10 -151 -14 -280 -7 -258 -1 -323 41 -384 l24 -36 -108 0
-109 0 -17 48 c-32 85 -31 391 2 630 l5 42 -49 0 -50 0 -18 -65 c-35 -132
-119 -195 -193 -146 -11 7 -11 14 4 42 13 24 19 55 19 104 l0 70 139 15 c133
14 139 16 148 40 14 36 6 234 -10 252 -11 14 -2 18 70 36 112 27 116 27 124
-4z m1192 -8 c92 -63 108 -198 32 -271 l-28 -26 21 -52 c17 -45 21 -86 28
-307 7 -258 14 -308 51 -367 l20 -33 -105 0 -105 0 -11 28 c-28 68 -33 112
-41 347 -4 141 -13 267 -20 289 -12 38 -29 59 -89 104 -82 62 -87 198 -9 268
47 43 80 54 149 51 54 -2 74 -8 107 -31z m1945 18 c119 -60 148 -185 67 -286
l-31 -38 17 -47 c13 -38 19 -103 25 -298 8 -263 17 -325 60 -379 l20 -26 -109
0 -110 0 -10 28 c-28 70 -35 134 -42 362 -8 286 -12 302 -95 373 -61 53 -80
96 -72 163 10 96 92 164 195 164 29 0 67 -7 85 -16z m-357 -243 c49 -23 81
-61 90 -110 4 -20 2 -132 -4 -249 -9 -169 -15 -222 -30 -255 -35 -78 -91 -106
-212 -107 -72 0 -138 -13 -208 -41 l-33 -14 1 -320 1 -320 -74 0 c-83 0 -115
13 -140 55 -15 25 -17 71 -17 402 0 457 12 672 41 737 26 59 91 126 153 158
47 24 294 80 361 82 17 0 48 -8 71 -18z m1066 -79 c85 -41 167 -129 199 -209
20 -51 24 -83 29 -263 4 -113 12 -221 19 -240 6 -19 11 -36 11 -38 0 -1 -48
-1 -107 0 l-108 3 -9 46 -9 46 -49 -33 c-64 -44 -118 -57 -200 -51 -91 6 -162
42 -231 117 -75 81 -100 147 -101 265 -1 141 44 241 146 320 73 58 137 76 249
72 84 -2 103 -6 161 -35z m-1842 -34 c33 -17 51 -35 68 -68 l23 -46 -12 -214
c-12 -234 -18 -270 -51 -320 -36 -53 -81 -70 -199 -76 -66 -4 -124 -13 -159
-26 -156 -56 -217 -58 -273 -8 -29 26 -32 34 -35 101 -2 41 1 146 6 234 11
184 25 226 103 303 61 59 110 80 267 112 171 35 206 36 262 8z m-2083 -1003
c45 -70 66 -91 62 -62 -5 41 3 147 11 147 6 0 10 -42 10 -105 0 -81 -3 -105
-13 -105 -8 0 -38 36 -68 80 l-54 81 -3 -81 c-2 -62 -6 -80 -17 -80 -12 0 -15
19 -15 103 0 57 3 107 7 110 10 11 28 -9 80 -88z m586 63 c24 -29 24 -137 -1
-168 -25 -30 -85 -32 -114 -2 -19 18 -22 32 -21 87 0 38 6 72 14 81 32 38 90
39 122 2z m485 -4 c17 -19 22 -37 22 -77 0 -84 -46 -128 -110 -106 -40 14 -50
36 -50 103 0 70 6 85 44 102 38 16 64 10 94 -22z m322 -80 c0 -86 -3 -104 -15
-104 -12 0 -15 18 -15 103 0 57 3 107 6 110 17 17 24 -13 24 -109z m184 95
c14 -11 26 -27 26 -35 0 -20 -13 -18 -27 5 -16 25 -48 32 -71 15 -44 -30 -35
-156 11 -168 30 -8 67 19 67 49 0 20 -5 25 -25 25 -14 0 -25 5 -25 10 0 6 18
10 40 10 37 0 40 -2 40 -28 0 -59 -55 -100 -110 -81 -40 14 -50 36 -50 106 0
60 10 82 45 101 30 17 49 14 79 -9z m116 -89 c0 -67 -4 -110 -10 -110 -11 0
-14 202 -3 213 12 13 13 7 13 -103z m424 90 c16 -16 1 -21 -29 -10 -22 8 -33
7 -51 -5 -42 -27 -27 -57 36 -70 41 -8 70 -31 70 -54 0 -28 -28 -58 -59 -64
-32 -7 -91 9 -91 24 0 12 12 11 44 -1 41 -15 78 3 74 37 -2 23 -10 29 -44 38
-51 12 -74 31 -74 59 0 26 9 39 35 54 21 13 73 8 89 -8z m-2564 -85 l0 -95 54
0 c30 0 58 -4 61 -10 4 -6 -20 -10 -64 -10 l-71 0 0 105 c0 63 4 105 10 105 6
0 10 -38 10 -95z m255 55 c7 -19 24 -65 38 -102 15 -39 22 -70 16 -73 -5 -4
-14 5 -21 19 -10 23 -17 26 -58 26 -38 0 -51 -4 -63 -22 -30 -46 -26 -9 11 90
40 111 56 123 77 62z m481 19 c14 -16 19 -36 19 -84 0 -86 -17 -105 -97 -105
l-58 0 0 105 0 105 58 0 c47 0 63 -4 78 -21z m514 11 c0 -5 -25 -10 -55 -10
l-55 0 0 -40 0 -40 50 0 c28 0 50 -4 50 -10 0 -5 -22 -10 -50 -10 l-50 0 0
-45 c0 -29 -4 -45 -12 -45 -10 0 -13 25 -11 95 1 52 2 100 2 105 1 6 30 10 66
10 37 0 65 -4 65 -10z m484 -6 c23 -22 20 -70 -5 -87 l-20 -15 21 -42 c12 -23
19 -44 16 -47 -9 -9 -26 8 -46 48 -17 32 -25 39 -51 39 -30 0 -30 -1 -28 -42
2 -24 -1 -45 -7 -48 -5 -3 -10 40 -12 103 l-3 107 60 0 c41 0 65 -5 75 -16z
m563 -66 l58 -83 3 83 c4 120 22 102 22 -23 0 -82 -3 -105 -14 -105 -7 0 -38
37 -67 82 l-54 82 -3 -82 c-4 -120 -22 -101 -22 23 0 62 4 105 10 105 5 0 36
-37 67 -82z"/>
<path d="M3920 3874 c-31 -28 -40 -44 -40 -69 0 -45 9 -65 29 -65 19 0 64 45
75 73 8 23 -4 97 -15 97 -5 0 -27 -16 -49 -36z"/>
<path d="M4860 3852 c0 -48 4 -62 23 -79 29 -27 63 -44 71 -36 10 10 7 92 -4
113 -9 17 -69 60 -84 60 -3 0 -6 -26 -6 -58z"/>
<path d="M3964 3725 c-15 -61 20 -132 77 -155 37 -16 49 -4 49 48 0 46 -25 86
-70 111 -47 26 -48 26 -56 -4z"/>
<path d="M4822 3730 c-43 -26 -72 -76 -72 -123 0 -47 20 -57 67 -32 44 24 63
61 63 125 0 57 -8 61 -58 30z"/>
<path d="M3743 3593 c-24 -8 -43 -18 -43 -23 0 -15 77 -70 107 -76 36 -7 107
18 111 39 4 22 -74 77 -107 76 -14 0 -45 -7 -68 -16z"/>
<path d="M4973 3590 c-41 -24 -61 -59 -42 -71 28 -18 88 -31 114 -25 14 4 43
22 63 41 41 39 38 46 -28 65 -50 14 -71 12 -107 -10z"/>
<path d="M3955 3429 c-32 -10 -103 -94 -91 -107 4 -4 35 -7 68 -7 56 0 62 2
94 37 33 36 42 62 27 71 -20 11 -71 15 -98 6z"/>
<path d="M4810 3431 c-37 -10 -36 -35 3 -77 29 -32 41 -38 88 -41 74 -5 88 5
63 47 -34 59 -97 87 -154 71z"/>
<path d="M3761 3354 c-12 -15 -24 -39 -28 -52 -7 -29 16 -104 34 -109 6 -2 24
17 39 42 25 43 26 49 14 86 -19 57 -34 65 -59 33z"/>
<path d="M5029 3336 l-21 -48 24 -46 c13 -26 31 -48 39 -50 21 -4 39 39 39 92
0 34 -6 48 -30 71 l-30 28 -21 -47z"/>
<path d="M3327 2180 c-59 -46 -51 -142 13 -175 84 -43 167 49 125 138 -27 57
-91 74 -138 37z"/>
<path d="M5311 2186 c-56 -31 -67 -108 -23 -155 39 -43 98 -46 137 -6 19 19
25 35 25 70 0 82 -71 128 -139 91z"/>
<path d="M4792 1960 c-58 -36 -81 -103 -92 -276 -14 -215 -13 -336 3 -358 19
-26 125 -19 165 10 52 38 62 77 77 291 21 283 20 299 -10 328 -31 32 -95 34
-143 5z"/>
<path d="M5906 1765 c-149 -53 -175 -261 -43 -352 57 -39 145 -44 207 -11 65
35 103 101 103 176 0 63 -16 103 -60 144 -57 55 -131 70 -207 43z"/>
<path d="M4003 1850 c-40 -24 -68 -78 -82 -156 -8 -52 -21 -277 -23 -417 -1
-81 39 -103 137 -76 88 24 103 60 121 294 20 262 19 330 -6 355 -27 27 -103
27 -147 0z"/>
<path d="M2729 966 c-21 -10 -24 -20 -27 -71 -3 -65 8 -88 45 -100 37 -11 63
25 63 88 0 75 -32 108 -81 83z"/>
<path d="M3211 963 c-14 -11 -24 -34 -27 -59 -9 -80 33 -131 82 -99 21 14 24
23 24 80 0 55 -3 66 -22 79 -28 20 -31 20 -57 -1z"/>
<path d="M1987 903 c-9 -27 -17 -51 -17 -55 0 -6 32 -6 72 1 8 1 -23 101 -32
101 -3 0 -14 -21 -23 -47z"/>
<path d="M2402 883 l3 -88 40 3 c22 2 46 11 53 20 15 20 16 124 0 140 -7 7
-32 12 -55 12 l-44 0 3 -87z"/>
<path d="M3402 933 c2 -31 7 -39 27 -41 37 -6 69 6 76 29 10 31 -12 49 -62 49
l-44 0 3 -37z"/>
</g>
</svg>
